# xmcd CD database file
#
# Track frame offsets:
#	182
#	13567
#	26047
#	39555
#	53047
#	67062
#	81917
#	84300
#	88392
#	105515
#	120685
#	124100
#	139720
#	155052
#	156977
#	157802
#	176242
#	177980
#	193632
#	195750
#	212327
#	228550
#
# Disc length: 3198 seconds
#
# Revision: 7
# Processed by: cddbd v1.5.2PL0 Copyright (c) Steve Scherf et al.
# Submitted via: CDex 1.70beta2
#
DISCID=260c7c16
DTITLE=Charlie Parker - Bird: The Complete Charlie Parker On Verve [CD9)
DYEAR=1990
DGENRE=Jazz
TTITLE0=The Song is You
TTITLE1=Laird Baird
TTITLE2=Kim (tk 2)
TTITLE3=Kim (tk 4)
TTITLE4=Cosmic Rays (tk 2)
TTITLE5=Cosmic Rays (tk 5)
TTITLE6=In the Still of the Night (tk 1)
TTITLE7=In the Still of the Night (tk 2)
TTITLE8=In the Still of the Night (tk 3)
TTITLE9=In the Still of the Night (tk 4)
TTITLE10=In the Still of the Night (tk 5)
TTITLE11=In the Still of the Night (tk 6)
TTITLE12=In the Still of the Night (tk 7)
TTITLE13=Old Folks (tk 1)
TTITLE14=Old Folks (tk 2)
TTITLE15=Old Folks (tk 3)
TTITLE16=Old Folks (tk 4)
TTITLE17=Old Folks (tk 6)
TTITLE18=Old Folks (tk 7)
TTITLE19=Old Folks (tk 8)
TTITLE20=Old Folks (tk 9)
TTITLE21=If I Love Again
EXTD=YEAR: 1990
EXTT0=
EXTT1=
EXTT2=
EXTT3=
EXTT4=
EXTT5=
EXTT6=
EXTT7=
EXTT8=
EXTT9=
EXTT10=
EXTT11=
EXTT12=
EXTT13=
EXTT14=
EXTT15=
EXTT16=
EXTT17=
EXTT18=
EXTT19=
EXTT20=
EXTT21=
PLAYORDER=
